<svg width="83" height="36" viewBox="0 0 83 36" fill="none" xmlns="http://www.w3.org/2000/svg">
<path d="M3.67334 26.0513C3.48565 26.4066 3.29484 26.7619 3.10089 27.1172C3.10089 27.1235 3.10402 27.1266 3.11028 27.1266C3.29797 26.7713 3.48565 26.4128 3.67334 26.0513ZM1.56184 23.4425C1.31159 23.7167 1.06447 23.9941 0.820475 24.2747C0.820475 24.2871 0.820475 24.2934 0.820475 24.2934C1.06447 24.0066 1.31159 23.723 1.56184 23.4425ZM0.782937 19.3469C0.526429 19.5028 0.266793 19.6586 0.00402877 19.8144C0.260537 19.6648 0.520173 19.509 0.782937 19.3469ZM3.19474 9.10803C3.38243 9.2514 3.57012 9.39478 3.7578 9.53815C3.7578 9.53815 3.7578 9.53504 3.7578 9.5288C3.57012 9.39166 3.38243 9.2514 3.19474 9.10803ZM15.7793 2.3195C15.6354 2.64989 15.4884 2.98028 15.3382 3.31067C15.3382 3.31067 15.3382 3.31378 15.3382 3.32002C15.4884 2.9834 15.6354 2.64989 15.7793 2.3195ZM18.1254 5.76987C18.238 6.04415 18.3537 6.31532 18.4726 6.58337C18.6728 6.35896 18.8699 6.13454 19.0638 5.91013C18.97 5.64208 18.8761 5.37091 18.7823 5.09663C18.5633 5.32104 18.3443 5.54545 18.1254 5.76987ZM14.747 9.5288C14.5155 9.75322 14.284 9.98075 14.0525 10.2114C14.1526 10.5106 14.2527 10.8161 14.3528 11.1278C14.5968 10.8659 14.8408 10.6041 15.0848 10.3423C14.9722 10.068 14.8596 9.79685 14.747 9.5288ZM9.548 7.1257C9.57303 7.46856 9.60118 7.8083 9.63246 8.14492C9.63246 8.13868 9.63559 8.13557 9.64184 8.13557C9.60431 7.80518 9.57303 7.46856 9.548 7.1257ZM7.88696 8.734C8.01208 8.97712 8.13721 9.22023 8.26234 9.46335C8.26859 9.45711 8.27172 9.454 8.27172 9.454C8.27172 9.454 8.27172 9.45088 8.27172 9.44465C8.14659 9.214 8.01834 8.97712 7.88696 8.734ZM6.48867 11.1184C6.68887 11.2493 6.88282 11.374 7.07051 11.4924C7.07677 11.4924 7.07989 11.4924 7.07989 11.4924C6.88595 11.3615 6.68887 11.2368 6.48867 11.1184ZM5.1467 17.0841C4.88394 17.2212 4.6243 17.3584 4.36779 17.4955C4.36154 17.5017 4.35841 17.508 4.35841 17.5142C4.36466 17.5142 4.36466 17.5173 4.35841 17.5235C4.62117 17.3802 4.88394 17.2337 5.1467 17.0841ZM10.2894 20.7401C10.2581 20.4098 10.2268 20.0763 10.1955 19.7396C10.1893 19.7459 10.1861 19.749 10.1861 19.749C10.2237 20.0794 10.2581 20.4098 10.2894 20.7401ZM11.9692 19.2067C12.1131 19.4373 12.257 19.6711 12.4009 19.9079C12.4071 19.9017 12.4103 19.8986 12.4103 19.8986C12.4103 19.8986 12.4103 19.8955 12.4103 19.8892C12.2601 19.6648 12.1131 19.4373 11.9692 19.2067ZM13.1892 17.0186C13.4144 17.1059 13.6396 17.19 13.8648 17.2711C14.0338 16.8098 14.2058 16.3454 14.381 15.8778C14.0557 15.8965 13.7303 15.9121 13.405 15.9246C13.3299 16.2924 13.258 16.6571 13.1892 17.0186ZM8.97555 17.2243C8.7253 17.2368 8.47505 17.2493 8.2248 17.2617C8.14346 17.6295 8.059 18.0004 7.97142 18.3745C8.22167 18.362 8.47505 18.3495 8.73156 18.337C8.81289 17.9693 8.89422 17.5984 8.97555 17.2243ZM10.0641 12.0628C10.1392 11.695 10.2143 11.3241 10.2894 10.9501C10.0454 10.9626 9.80451 10.9719 9.56677 10.9781C9.4917 11.3459 9.41349 11.7168 9.33216 12.0909C9.57616 12.0846 9.82015 12.0753 10.0641 12.0628ZM18.5195 11.7729C18.7635 11.7667 19.0106 11.7605 19.2609 11.7542C19.3172 11.3927 19.3704 11.0311 19.4204 10.6696C19.1764 10.6758 18.9324 10.682 18.6884 10.6883C18.6321 11.0498 18.5758 11.4114 18.5195 11.7729ZM16.7553 18.5802C16.5363 18.4617 16.3173 18.3433 16.0983 18.2248C16.0983 18.2248 16.0983 18.228 16.0983 18.2342C16.3173 18.3464 16.5363 18.4617 16.7553 18.5802ZM7.33327 25.6398C6.1133 25.7334 5.09039 25.5089 4.22703 24.9947C3.8579 25.6991 3.48566 26.4097 3.11028 27.1266C4.14257 27.7437 5.37192 27.9868 6.78897 27.8653C6.97041 27.1235 7.15184 26.3817 7.33327 25.6398ZM4.23641 24.9947C3.4012 24.4336 2.75367 23.6388 2.28445 22.5916C1.80271 23.1588 1.31472 23.7261 0.820475 24.2934C1.36477 25.5276 2.12491 26.4721 3.10089 27.1172C3.48253 26.4066 3.86103 25.6991 4.23641 24.9947ZM2.29383 22.6103C1.85276 21.5349 1.60877 20.2913 1.57123 18.87C1.0457 19.188 0.523301 19.5028 0.00402877 19.8144C0.0415665 21.5162 0.304331 23.003 0.820475 24.2747C1.31472 23.7199 1.80584 23.1651 2.29383 22.6103ZM1.56184 18.8794C1.52431 17.4394 1.712 15.8872 2.10614 14.2041C1.62441 14.2228 1.14267 14.2384 0.66094 14.2508C0.191718 16.2238 -0.033509 18.0846 0.00402877 19.8144C0.523301 19.5028 1.04257 19.1911 1.56184 18.8794ZM2.10614 14.2041C2.50029 12.5116 3.05397 10.9594 3.7578 9.53815C3.38243 9.2514 3.01018 8.96777 2.64106 8.68725C1.78707 10.4171 1.13016 12.2779 0.66094 14.2508C1.14267 14.2384 1.62441 14.2228 2.10614 14.2041ZM3.7578 9.5288C4.47102 8.07011 5.2687 6.79843 6.1696 5.72312C5.95063 5.19948 5.72854 4.67897 5.50331 4.16157C4.43348 5.4613 3.48566 6.96674 2.64106 8.68725C3.01018 8.96777 3.38243 9.24828 3.7578 9.5288ZM6.1696 5.72312C7.07051 4.61975 8.02772 3.76884 9.03186 3.16106C8.98806 2.48158 8.94114 1.79899 8.89109 1.11328C7.70865 1.82392 6.58252 2.83379 5.50331 4.16157C5.72854 4.67897 5.95063 5.19948 6.1696 5.72312ZM9.03186 3.16106C10.0454 2.54392 11.0777 2.21665 12.1287 2.19795C12.2538 1.46237 12.379 0.729906 12.5041 0.000561259C11.2935 0.0192624 10.0829 0.383935 8.88171 1.12263C8.93801 1.80211 8.98806 2.48158 9.03186 3.16106ZM12.1287 2.19795C13.3299 2.17925 14.3904 2.56262 15.3382 3.31067C15.6322 2.64989 15.9294 1.986 16.2297 1.31899C15.1224 0.430688 13.8742 -0.0181399 12.5041 0.000561259C12.379 0.729906 12.2538 1.46237 12.1287 2.19795ZM15.3382 3.32002C16.3048 4.04936 17.0086 5.08728 17.4497 6.44311C17.9002 5.99428 18.3444 5.54545 18.7823 5.09663C18.2192 3.44157 17.3465 2.17925 16.211 1.30029C15.9232 1.97977 15.6322 2.65301 15.3382 3.32002ZM17.7875 4.95637C16.6739 6.20311 15.554 7.45297 14.4279 8.70595C14.6406 9.25452 14.8596 9.79997 15.0848 10.3423C16.2235 9.08309 17.3527 7.83011 18.4726 6.58337C18.2411 6.04104 18.0128 5.4987 17.7875 4.95637ZM15.4414 8.85556C15.0754 7.71479 14.5593 6.83583 13.8836 6.2561C13.5583 6.91064 13.2298 7.57453 12.8982 8.24777C13.3769 8.6592 13.771 9.30439 14.0525 10.2114C14.5155 9.75633 14.9785 9.30439 15.4414 8.85556ZM13.8836 6.2561C13.2173 5.67636 12.4384 5.39585 11.5563 5.41455C11.4249 6.15013 11.2873 6.88882 11.1434 7.63063C11.8284 7.61193 12.4103 7.81765 12.8982 8.24777C13.2298 7.57453 13.5583 6.91064 13.8836 6.2561ZM11.5563 5.41455C10.8618 5.4239 10.158 5.66701 9.44477 6.12519C9.51359 6.7922 9.57928 7.46232 9.64184 8.13557C10.1392 7.8083 10.6366 7.63999 11.1434 7.63063C11.2873 6.88882 11.4249 6.15013 11.5563 5.41455ZM9.45415 6.12519C8.76909 6.55532 8.11218 7.20051 7.49281 8.02336C7.75557 8.49712 8.01521 8.97088 8.27172 9.44465C8.7034 8.86491 9.15386 8.43479 9.63246 8.14492C9.57616 7.46544 9.51672 6.7922 9.45415 6.12519ZM7.51158 8.00466C6.90159 8.79946 6.36668 9.72517 5.89746 10.7631C6.2916 11 6.68575 11.2431 7.07989 11.4924C7.4365 10.6883 7.83065 10.0244 8.26234 9.46335C8.01208 8.97712 7.76183 8.49089 7.51158 8.00466ZM5.89746 10.7537C5.42823 11.7823 5.05286 12.9044 4.78071 14.1106C5.2687 14.0919 5.75356 14.0732 6.23529 14.0545C6.45114 13.0914 6.73267 12.2498 7.07051 11.4924C6.68262 11.2431 6.2916 10.9968 5.89746 10.7537ZM4.78071 14.1106C4.50856 15.2981 4.36779 16.4295 4.36779 17.4955C4.88706 17.2212 5.40634 16.95 5.92561 16.682C5.91622 15.8778 6.01945 15.0082 6.23529 14.0545C5.75356 14.0732 5.2687 14.0919 4.78071 14.1106ZM4.35841 17.5235C4.37718 18.5521 4.53671 19.4498 4.82763 20.2072C5.31562 19.6773 5.80048 19.1474 6.28222 18.6176C6.07576 18.0752 5.95376 17.4207 5.92561 16.6446C5.40634 16.9376 4.88394 17.2306 4.35841 17.5235ZM4.82763 20.2072C5.11855 20.9646 5.54085 21.5443 6.10391 21.9464C6.47303 21.2544 6.84215 20.5625 7.21128 19.8705C6.80774 19.5807 6.50744 19.1599 6.28222 18.6176C5.80048 19.1474 5.31562 19.6773 4.82763 20.2072ZM6.10391 21.9464C6.66698 22.3671 7.35204 22.5448 8.14972 22.4887C8.31864 21.7469 8.48756 21.0051 8.65648 20.2633C8.06526 20.3007 7.59604 20.1604 7.21128 19.8705C6.84215 20.5625 6.47303 21.2544 6.10391 21.9464ZM8.14972 22.4887C8.90986 22.442 9.66062 22.1895 10.402 21.7126C10.3269 21.0643 10.255 20.4098 10.1861 19.749C9.71692 20.0482 9.20078 20.2352 8.65648 20.2633C8.48756 21.0051 8.31864 21.7469 8.14972 22.4887ZM10.3832 21.722C11.1246 21.2638 11.7909 20.6653 12.4009 19.9079C12.1131 19.4404 11.8284 18.9729 11.5469 18.5054C11.1527 19.0196 10.7023 19.4311 10.1955 19.7396C10.2581 20.4066 10.3207 21.0674 10.3832 21.722ZM12.4103 19.8892C13.0202 19.1038 13.4988 18.2342 13.8648 17.2711C13.4144 17.1028 12.9639 16.9407 12.5135 16.7849C12.2695 17.4113 11.9504 18.0004 11.5375 18.5241C11.8253 18.9791 12.1162 19.4342 12.4103 19.8892ZM13.405 15.9246C12.0036 15.9869 10.6053 16.0493 9.21016 16.1116C9.05375 16.8534 8.89422 17.5952 8.73156 18.337C10.1392 18.2685 11.5531 18.1968 12.9733 18.122C13.1172 17.3864 13.2611 16.6539 13.405 15.9246ZM9.72631 17.1869C10.0892 15.4727 10.4458 13.7553 10.7961 12.0348C10.3081 12.0535 9.82015 12.0722 9.33216 12.0909C8.9693 13.8114 8.60017 15.535 8.2248 17.2617C8.7253 17.2368 9.2258 17.2119 9.72631 17.1869ZM9.83892 13.1755C12.6605 13.0696 15.4946 12.9667 18.3412 12.867C18.4601 12.1376 18.5758 11.4114 18.6884 10.6883C15.8794 10.7755 13.0797 10.8628 10.2894 10.9501C10.1392 11.6919 9.98907 12.4337 9.83892 13.1755ZM17.7782 11.801C17.6843 12.3745 17.5905 12.9449 17.4966 13.5121C17.9971 13.4934 18.4945 13.4747 18.9887 13.456C19.0826 12.895 19.1733 12.3277 19.2609 11.7542C18.7666 11.7667 18.2724 11.7823 17.7782 11.801ZM17.4966 13.5121C17.2151 15.214 16.7459 16.7942 16.0983 18.2248C16.5363 18.4617 16.9711 18.6955 17.4028 18.9261C18.1535 17.2337 18.6791 15.4103 18.9887 13.456C18.4945 13.4747 17.9971 13.4934 17.4966 13.5121ZM16.0983 18.2342C15.4602 19.6461 14.6907 20.8804 13.7804 21.9557C14.0557 22.4357 14.3372 22.9126 14.625 23.3864C15.7323 22.096 16.6614 20.5999 17.4028 18.9261C16.9711 18.6955 16.5363 18.4648 16.0983 18.2342ZM13.7804 21.9557C12.8513 23.031 11.8378 23.8913 10.7398 24.5365C10.7961 25.191 10.8556 25.8456 10.9181 26.5001C12.2601 25.7334 13.4895 24.6861 14.625 23.3864C14.3372 22.9126 14.0557 22.4357 13.7804 21.9557ZM10.7398 24.5365C9.65123 25.1817 8.51571 25.5557 7.33327 25.6398C7.15184 26.3817 6.97041 27.1235 6.78897 27.8653C8.18726 27.7531 9.56677 27.3043 10.9181 26.5001C10.8556 25.8456 10.7961 25.191 10.7398 24.5365ZM18.116 25.5276C17.847 25.5463 17.5748 25.5682 17.2995 25.5931C17.237 25.9422 17.1744 26.2944 17.1119 26.6497C17.3871 26.631 17.6593 26.6123 17.9283 26.5936C17.9909 26.2383 18.0534 25.883 18.116 25.5276ZM20.9126 7.76154C20.9626 7.39999 21.0127 7.03843 21.0627 6.67688C20.825 6.68311 20.5841 6.68934 20.3401 6.69558C20.2901 7.05713 20.24 7.41869 20.19 7.78024C20.434 7.77401 20.6748 7.76778 20.9126 7.76154ZM24.6663 7.69609C24.9103 7.68985 25.1512 7.68674 25.3889 7.68674C25.4327 7.32518 25.4734 6.96363 25.5109 6.60207C25.2669 6.6083 25.0261 6.61142 24.7883 6.61142C24.7508 6.97298 24.7101 7.33453 24.6663 7.69609ZM24.1971 11.7262C23.9469 11.7324 23.6966 11.7387 23.4464 11.7449C23.9093 11.8633 24.3754 11.9818 24.8446 12.1002C24.6257 11.9755 24.4098 11.8509 24.1971 11.7262ZM25.952 8.40673C25.8206 8.13245 25.6892 7.8644 25.5579 7.60258C25.5579 7.60258 25.5547 7.6057 25.5485 7.61193C25.6861 7.87998 25.8206 8.14492 25.952 8.40673ZM27.9509 7.30336C28.0009 6.94804 28.0479 6.5896 28.0917 6.22805C28.0791 6.22805 28.0729 6.22805 28.0729 6.22805C28.0604 6.22805 28.051 6.22805 28.0447 6.22805C28.0135 6.5896 27.9822 6.94804 27.9509 7.30336ZM29.1615 7.74284C29.4055 7.74284 29.6495 7.74284 29.8935 7.74284C29.906 7.52466 29.9216 7.3096 29.9404 7.09765C29.8215 6.99791 29.7027 6.89817 29.5838 6.79843C29.4461 7.11635 29.3054 7.43116 29.1615 7.74284ZM28.7486 12.4929C28.6047 12.8046 28.4576 13.1163 28.3075 13.428C28.6516 13.7023 28.9988 13.9734 29.3492 14.2415C29.3992 13.6555 29.4493 13.0696 29.4993 12.4836C29.2491 12.4836 28.9988 12.4867 28.7486 12.4929ZM25.3045 12.6238C25.3858 12.9355 25.4703 13.2441 25.5579 13.5496C25.5579 13.5433 25.561 13.5402 25.5672 13.5402C25.5735 13.5402 25.5766 13.5402 25.5766 13.5402C25.4828 13.2285 25.3921 12.9231 25.3045 12.6238ZM23.8874 14.2228C23.6997 14.0295 23.5152 13.8363 23.3337 13.6431C23.2774 13.7303 23.2243 13.8207 23.1742 13.9142C23.1554 14.0264 23.1398 14.1355 23.1273 14.2415C23.3775 14.2353 23.6309 14.229 23.8874 14.2228ZM22.3671 25.2471C22.3171 25.5962 22.267 25.9422 22.217 26.285C22.4923 26.2726 22.7676 26.257 23.0428 26.2383C23.0929 25.8892 23.1429 25.5432 23.193 25.2004C22.9177 25.2191 22.6424 25.2347 22.3671 25.2471ZM18.9324 25.4715C19.8834 19.6056 20.7843 13.6992 21.6352 7.75219C21.1534 7.75843 20.6717 7.76778 20.19 7.78024C19.2828 13.7459 18.3193 19.6835 17.2995 25.5931C17.8438 25.5495 18.3881 25.5089 18.9324 25.4715ZM20.7624 8.84621C22.0199 8.82128 23.2806 8.79634 24.5443 8.77141C24.6257 8.05453 24.707 7.33453 24.7883 6.61142C23.5433 6.63012 22.3015 6.65194 21.0627 6.67688C20.9626 7.39999 20.8625 8.1231 20.7624 8.84621ZM23.9437 7.70544C23.7811 9.05816 23.6153 10.4046 23.4464 11.7449C23.9469 11.7324 24.4442 11.72 24.9385 11.7075C25.0949 10.3735 25.245 9.03322 25.3889 7.68674C24.9072 7.69297 24.4255 7.69921 23.9437 7.70544ZM24.8446 12.1002C25.3796 10.6883 25.8957 9.74387 26.3743 9.18283C26.0928 8.6592 25.8175 8.13557 25.5485 7.61193C24.8165 8.49089 24.1596 9.77192 23.5402 11.3615C23.9781 11.6046 24.413 11.8509 24.8446 12.1002ZM26.3649 9.19218C26.8248 8.64985 27.3127 8.38803 27.857 8.37868C27.9196 7.6618 27.9822 6.94493 28.0447 6.22805C27.1626 6.2374 26.3274 6.71428 25.5579 7.60258C25.8206 8.13868 26.0896 8.66855 26.3649 9.19218ZM27.8101 8.37868C28.0541 8.39738 28.2324 8.42543 28.3638 8.46284C28.514 7.75843 28.661 7.05713 28.8049 6.35896C28.6078 6.2935 28.3638 6.26545 28.0917 6.22805C27.9978 6.94493 27.904 7.6618 27.8101 8.37868ZM28.3638 8.46284C28.4389 8.48154 28.5515 8.54699 28.7392 8.68725C29.0207 8.05764 29.3022 7.42804 29.5838 6.79843C29.3398 6.58337 29.077 6.41506 28.8049 6.35896C28.661 7.05713 28.514 7.75843 28.3638 8.46284ZM28.4295 7.75219C28.2919 9.33556 28.148 10.9189 27.9978 12.5023C28.4983 12.4961 28.9988 12.4898 29.4993 12.4836C29.6307 10.9002 29.7621 9.31997 29.8935 7.74284C29.4055 7.74284 28.9175 7.74596 28.4295 7.75219ZM29.1803 11.5392C28.8893 11.3148 28.5515 11.1465 28.1949 11.0436C28.026 11.7418 27.8602 12.4399 27.6975 13.1381C27.9603 13.2036 28.1573 13.3064 28.3075 13.428C28.6015 12.8046 28.8925 12.175 29.1803 11.5392ZM28.1949 11.0436C27.8383 10.9407 27.4629 10.9033 27.0875 10.9127C27.0124 11.6233 26.9374 12.334 26.8623 13.0446C27.1626 13.0353 27.4347 13.0633 27.6975 13.1381C27.8602 12.4399 28.026 11.7418 28.1949 11.0436ZM27.0875 10.9127C26.3837 10.922 25.6986 11.1839 25.0323 11.7075C25.2138 12.3184 25.3952 12.9293 25.5766 13.5402C25.9989 13.2129 26.4212 13.054 26.8623 13.0446C26.9374 12.334 27.0124 11.6233 27.0875 10.9127ZM25.0511 11.6888C24.4036 12.175 23.8311 12.8296 23.3337 13.6431C23.7029 14.0295 24.0689 14.4192 24.4317 14.8119C24.7508 14.2882 25.1168 13.8675 25.5579 13.5496C25.3889 12.9324 25.22 12.3122 25.0511 11.6888ZM23.1273 14.2415C22.6143 17.9506 22.0887 21.6378 21.5507 25.3032C22.095 25.2658 22.6424 25.2315 23.193 25.2004C23.6872 21.5599 24.169 17.8945 24.6382 14.2041C24.1377 14.2166 23.634 14.229 23.1273 14.2415ZM22.5173 24.2092C21.1096 24.2902 19.7051 24.3775 18.3037 24.471C18.1786 25.1754 18.0534 25.883 17.9283 26.5936C19.3547 26.4876 20.7843 26.3848 22.217 26.285C22.3171 25.5931 22.4172 24.9012 22.5173 24.2092ZM29.2553 20.9833C29.0113 21.1578 28.7642 21.3323 28.514 21.5069C28.514 21.5131 28.514 21.5162 28.514 21.5162C28.514 21.5287 28.5171 21.5349 28.5233 21.5349C28.7673 21.3479 29.0113 21.164 29.2553 20.9833ZM30.0718 11.829C29.8716 11.6483 29.6714 11.4706 29.4712 11.2961C29.4712 11.2961 29.4712 11.2992 29.4712 11.3054C29.6714 11.48 29.8716 11.6545 30.0718 11.829ZM39.0714 8.63115C38.9463 8.93036 38.8181 9.2327 38.6867 9.53815C38.6867 9.53815 38.6898 9.53815 38.6961 9.53815C38.8275 9.2327 38.9526 8.93036 39.0714 8.63115ZM41.3519 11.9319C41.1266 12.1002 40.9045 12.2685 40.6856 12.4368C40.6856 12.4368 40.6856 12.4399 40.6856 12.4462C40.6918 12.4462 40.695 12.4462 40.695 12.4462C40.9139 12.2779 41.1329 12.1064 41.3519 11.9319ZM41.3237 20.9365C41.0922 20.7557 40.8607 20.5781 40.6293 20.4035C40.623 20.4035 40.6199 20.4035 40.6199 20.4035C40.8514 20.5781 41.086 20.7557 41.3237 20.9365ZM38.7524 23.9474C38.6273 23.6544 38.499 23.3645 38.3676 23.0778C38.4927 23.3645 38.621 23.6544 38.7524 23.9474ZM37.9922 14.1386C37.7545 14.282 37.5199 14.4254 37.2884 14.5688C37.2884 14.5688 37.2884 14.5719 37.2884 14.5781C37.5199 14.4285 37.7545 14.282 37.9922 14.1386ZM34.2666 12.521C34.1477 12.228 34.0289 11.9319 33.91 11.6327C33.9038 11.6389 33.9006 11.642 33.9006 11.642C33.9006 11.642 33.8975 11.642 33.8912 11.642C34.0164 11.9413 34.1415 12.2342 34.2666 12.521ZM33.2343 14.1106C33.4596 14.254 33.6817 14.4036 33.9006 14.5594C33.9006 14.5532 33.9006 14.5501 33.9006 14.5501C33.6817 14.4005 33.4596 14.254 33.2343 14.1106ZM33.8349 20.1698C33.666 20.4503 33.4971 20.7339 33.3282 21.0207C33.3344 21.0207 33.3376 21.0207 33.3376 21.0207C33.3376 21.0269 33.3407 21.03 33.3469 21.03C33.5096 20.7433 33.6723 20.4565 33.8349 20.1698ZM35.1488 24.069C33.9194 24.0877 32.8777 23.7697 31.9862 23.1245C31.6734 23.723 31.3543 24.3152 31.029 24.9012C32.1833 25.7053 33.5252 26.098 35.0361 26.07C35.0737 25.403 35.1112 24.736 35.1488 24.069ZM31.9862 23.1245C31.1041 22.4794 30.4471 21.5817 29.9967 20.4316C29.5087 20.7931 29.0176 21.1609 28.5233 21.5349C29.0676 22.9749 29.9029 24.097 31.029 24.9012C31.3543 24.3152 31.6734 23.723 31.9862 23.1245ZM30.0061 20.4503C29.5932 19.2815 29.4524 17.9443 29.5932 16.4202C29.0739 16.4264 28.5546 16.4358 28.0353 16.4482C27.8477 18.3183 27.9978 20.0202 28.514 21.5069C29.0145 21.1516 29.5118 20.7994 30.0061 20.4503ZM29.5932 16.4202C29.7245 14.8867 30.0999 13.5402 30.6818 12.3527C30.2751 12.0036 29.8716 11.6545 29.4712 11.3054C28.7016 12.8389 28.223 14.5781 28.0353 16.4482C28.5546 16.4358 29.0739 16.4264 29.5932 16.4202ZM30.6818 12.362C31.2824 11.1278 32.0237 10.174 32.9246 9.4727C32.7182 8.86179 32.5117 8.24777 32.3053 7.63063C31.1885 8.51894 30.2407 9.74387 29.4712 11.2961C29.8716 11.6514 30.2751 12.0067 30.6818 12.362ZM32.9246 9.4727C33.7974 8.78076 34.7734 8.43478 35.8432 8.44414C35.8682 7.73349 35.8933 7.02285 35.9183 6.3122C34.6326 6.30285 33.422 6.73298 32.3053 7.63063C32.5117 8.24777 32.7182 8.86179 32.9246 9.4727ZM35.8432 8.44414C36.9412 8.46284 37.8796 8.82751 38.6867 9.53815C38.9432 8.93348 39.2028 8.32569 39.4656 7.71479C38.4145 6.79843 37.2321 6.3309 35.9183 6.3122C35.8933 7.02285 35.8682 7.73349 35.8432 8.44414ZM38.6961 9.53815C39.5313 10.2488 40.1976 11.2213 40.6856 12.4368C41.1298 12.1002 41.5677 11.7667 41.9994 11.4363C41.38 9.88412 40.526 8.63115 39.4562 7.71479C39.1997 8.32569 38.9463 8.93348 38.6961 9.53815ZM40.695 12.4462C41.2017 13.6244 41.4645 14.9521 41.4551 16.4576C41.9806 16.4763 42.503 16.4919 43.0223 16.5043C43.0129 14.6623 42.6657 12.9511 41.9994 11.4083C41.5677 11.7574 41.1329 12.1033 40.695 12.4462ZM41.4551 16.4576C41.4551 17.963 41.1736 19.2628 40.6293 20.4035C41.0922 20.7588 41.5552 21.1111 42.0182 21.4601C42.7126 20.0015 43.0411 18.3464 43.0223 16.5043C42.503 16.4919 41.9806 16.4763 41.4551 16.4576ZM40.6199 20.4035C40.085 21.5349 39.3342 22.4233 38.3676 23.0778C38.6241 23.6575 38.8838 24.2341 39.1465 24.8076C40.3665 23.9941 41.3237 22.8814 42.0182 21.4601C41.5552 21.1111 41.0891 20.7588 40.6199 20.4035ZM38.3676 23.0778C37.4292 23.723 36.3593 24.069 35.1488 24.069C35.1112 24.736 35.0737 25.403 35.0361 26.07C36.5377 26.0513 37.9172 25.6305 39.1559 24.8076C38.8869 24.2341 38.6241 23.6575 38.3676 23.0778ZM35.2426 21.7313C35.9652 21.7313 36.6409 21.4882 37.2415 21.002C36.9599 20.4409 36.6784 19.8768 36.3969 19.3095C36.106 19.5526 35.7681 19.7022 35.3458 19.7022C35.3145 20.3817 35.2801 21.0581 35.2426 21.7313ZM37.2415 21.002C37.8233 20.5157 38.255 19.8705 38.5741 19.0664C38.0986 18.7796 37.6294 18.4867 37.1664 18.1874C36.9599 18.7017 36.7066 19.057 36.3969 19.3095C36.6784 19.8768 36.9599 20.4409 37.2415 21.002ZM38.5741 19.0664C38.8931 18.2622 39.0433 17.3739 39.0621 16.4108C38.5428 16.3984 38.0235 16.389 37.5042 16.3828C37.4761 17.0934 37.3635 17.6825 37.1664 18.1874C37.6294 18.4867 38.0986 18.7796 38.5741 19.0664ZM39.0621 16.4108C39.0808 15.4197 38.9682 14.5033 38.7055 13.6898C38.23 13.989 37.7576 14.2851 37.2884 14.5781C37.4386 15.055 37.523 15.6534 37.5042 16.3828C38.0235 16.389 38.5428 16.3984 39.0621 16.4108ZM38.7055 13.6992C38.4333 12.867 38.0579 12.1937 37.5418 11.6794C37.2415 12.2529 36.9381 12.8296 36.6315 13.4093C36.9036 13.6711 37.1289 14.0545 37.2884 14.5688C37.7576 14.282 38.23 13.9921 38.7055 13.6992ZM37.5418 11.6794C37.0163 11.1652 36.4157 10.9127 35.7494 10.9033C35.7181 11.6077 35.6868 12.3122 35.6555 13.0166C36.059 13.0166 36.3687 13.1568 36.6315 13.4093C36.9381 12.8296 37.2415 12.2529 37.5418 11.6794ZM35.7494 10.9033C35.0924 10.9033 34.4731 11.1371 33.91 11.6327C34.1477 12.2249 34.3917 12.8171 34.642 13.4093C34.9517 13.1475 35.2895 13.0072 35.6555 13.0166C35.6868 12.3122 35.7181 11.6077 35.7494 10.9033ZM33.8912 11.642C33.3469 12.1563 32.9059 12.8296 32.568 13.6618C33.0122 13.961 33.4564 14.2571 33.9006 14.5501C34.1071 14.0358 34.3605 13.6524 34.6608 13.3906C34.398 12.8109 34.1415 12.228 33.8912 11.642ZM32.5774 13.6524C32.2302 14.4659 32.0331 15.3916 31.9674 16.3828C32.4867 16.3765 33.006 16.3734 33.5252 16.3734C33.5628 15.6347 33.7035 15.0363 33.9006 14.5594C33.4564 14.2602 33.0154 13.9579 32.5774 13.6524ZM31.9674 16.3828C31.8924 17.3646 31.958 18.2622 32.1927 19.0757C32.6932 18.7828 33.1905 18.4867 33.6848 18.1874C33.5346 17.6825 33.4783 17.0934 33.5252 16.3734C33.006 16.3734 32.4867 16.3765 31.9674 16.3828ZM32.1927 19.0757C32.4273 19.8892 32.812 20.5344 33.3282 21.0207C33.666 20.4534 34.0039 19.883 34.3417 19.3095C34.0602 19.057 33.8349 18.7017 33.6848 18.1874C33.1905 18.4867 32.6932 18.7828 32.1927 19.0757ZM33.3469 21.03C33.9006 21.5069 34.5388 21.7407 35.2426 21.7313C35.2801 21.0581 35.3145 20.3817 35.3458 19.7022C34.9611 19.7022 34.6232 19.5713 34.3229 19.3002C33.9976 19.8799 33.6723 20.4565 33.3469 21.03ZM44.4581 21.03C44.2266 21.1859 43.9951 21.3448 43.7637 21.5069C43.7637 21.5131 43.7637 21.5162 43.7637 21.5162C43.7637 21.5225 43.7668 21.5256 43.7731 21.5256C44.0045 21.3573 44.2329 21.1921 44.4581 21.03ZM44.2892 12.0441C44.0702 11.8509 43.8513 11.6639 43.6323 11.4831C43.6323 11.4831 43.6323 11.4862 43.6323 11.4924C43.8513 11.6794 44.0702 11.8633 44.2892 12.0441ZM53.0918 9.36049C52.9792 9.65348 52.8728 9.94646 52.7727 10.2394C52.8791 9.94646 52.9854 9.65348 53.0918 9.36049ZM55.6537 12.7361C55.4473 12.8981 55.2408 13.0571 55.0344 13.2129C55.0344 13.2129 55.0375 13.216 55.0438 13.2223C55.2502 13.0664 55.4535 12.9044 55.6537 12.7361ZM54.3587 24.658C54.1898 24.3526 54.024 24.0503 53.8613 23.751C53.8613 23.751 53.8582 23.7479 53.8519 23.7417C54.0146 24.0471 54.1835 24.3526 54.3587 24.658ZM52.51 14.7651C52.2847 14.896 52.0626 15.0269 51.8437 15.1579C51.8437 15.1579 51.8468 15.161 51.853 15.1672C52.072 15.0301 52.291 14.896 52.51 14.7651ZM48.6154 12.9605C48.459 12.6612 48.3057 12.362 48.1556 12.0628C48.1493 12.069 48.1462 12.0722 48.1462 12.0722C48.1462 12.0722 48.1431 12.0722 48.1368 12.0722C48.2932 12.3714 48.4528 12.6675 48.6154 12.9605ZM47.7239 14.4753C47.9616 14.6311 48.1994 14.7932 48.4371 14.9615C48.4371 14.9553 48.4371 14.9521 48.4371 14.9521C48.1994 14.7901 47.9616 14.6311 47.7239 14.4753ZM48.9908 20.5344C48.8469 20.8025 48.7061 21.0736 48.5685 21.3479C48.5748 21.3479 48.5779 21.3479 48.5779 21.3479C48.5779 21.3542 48.581 21.3573 48.5873 21.3573C48.7186 21.083 48.8532 20.8087 48.9908 20.5344ZM50.7551 24.5178C49.5257 24.443 48.4371 24.0409 47.4705 23.3396C47.2203 23.9069 46.9669 24.4679 46.7104 25.0227C47.9773 25.9204 49.3756 26.4159 50.8958 26.5095C50.8458 25.8487 50.7989 25.1848 50.7551 24.5178ZM47.4705 23.3396C46.4945 22.6383 45.725 21.7033 45.1432 20.5344C44.6865 20.8586 44.2298 21.189 43.7731 21.5256C44.4957 22.9843 45.4716 24.1438 46.7104 25.0227C46.9669 24.4679 47.2203 23.9069 47.4705 23.3396ZM45.1526 20.5531C44.5989 19.375 44.308 18.0565 44.2798 16.5511C43.7543 16.5324 43.2319 16.5137 42.7126 16.495C42.722 18.3277 43.0692 20.0014 43.7637 21.5069C44.2266 21.1827 44.6896 20.8648 45.1526 20.5531ZM44.2798 16.5511C44.2517 15.0456 44.4863 13.7459 44.9649 12.5958C44.5144 12.228 44.0702 11.8602 43.6323 11.4924C43.0129 12.9792 42.7032 14.6623 42.7126 16.495C43.2319 16.5137 43.7543 16.5324 44.2798 16.5511ZM44.9649 12.6051C45.4529 11.4176 46.1098 10.5106 46.9544 9.86542C46.6854 9.24205 46.4163 8.61868 46.1473 7.99531C45.0963 8.81816 44.2517 9.98698 43.6323 11.4831C44.0702 11.8571 44.5144 12.2311 44.9649 12.6051ZM46.9544 9.86542C47.7708 9.22958 48.7186 8.93972 49.8072 9.00517C49.7697 8.30699 49.7353 7.6057 49.704 6.90129C48.3902 6.80778 47.2078 7.17246 46.1473 7.99531C46.4163 8.61868 46.6854 9.24205 46.9544 9.86542ZM49.8072 9.00517C50.9146 9.07997 51.8906 9.50075 52.7727 10.2394C52.9854 9.65348 53.1919 9.06751 53.3921 8.48154C52.266 7.51843 51.0272 6.99479 49.704 6.90129C49.7353 7.6057 49.7697 8.30699 49.8072 9.00517ZM52.7727 10.2394C53.6924 10.9875 54.4338 11.9787 55.0344 13.2129C55.4473 12.895 55.8571 12.5802 56.2637 12.2685C55.4942 10.707 54.537 9.4353 53.3827 8.48154C53.1888 9.06751 52.9854 9.65348 52.7727 10.2394ZM55.0438 13.2223C55.6631 14.4098 56.0479 15.7469 56.198 17.2617C56.7173 17.2991 57.2335 17.3365 57.7465 17.3739C57.5494 15.5225 57.052 13.802 56.2544 12.2498C55.854 12.574 55.4504 12.8981 55.0438 13.2223ZM56.198 17.2617C56.3482 18.7672 56.2168 20.0576 55.7945 21.189C56.295 21.5692 56.7955 21.9495 57.296 22.3297C57.8122 20.8804 57.9623 19.2254 57.7465 17.3739C57.2335 17.3365 56.7173 17.2991 56.198 17.2617ZM55.7945 21.189C55.3816 22.3017 54.7435 23.1526 53.8613 23.751C54.1929 24.3557 54.5214 24.9573 54.8467 25.5557C55.954 24.817 56.7799 23.7323 57.296 22.3297C56.7955 21.9495 56.295 21.5692 55.7945 21.189ZM53.8519 23.7417C52.998 24.3308 51.9751 24.6019 50.7551 24.5178C50.7989 25.1848 50.8458 25.8487 50.8958 26.5095C52.3974 26.6123 53.7206 26.3037 54.8561 25.5557C54.5245 24.9573 54.1898 24.3526 53.8519 23.7417ZM50.5768 22.1895C51.2994 22.2362 51.9469 22.0305 52.4912 21.5817C52.1471 21.002 51.803 20.4191 51.4589 19.8331C51.1961 20.0669 50.8677 20.1885 50.4454 20.1604C50.4892 20.8399 50.533 21.5162 50.5768 22.1895ZM52.4912 21.5817C53.0167 21.1329 53.3827 20.5157 53.6079 19.7303C53.1074 19.4061 52.6038 19.082 52.097 18.7578C51.9563 19.2628 51.7404 19.5994 51.4589 19.8331C51.803 20.4191 52.1471 21.002 52.4912 21.5817ZM53.6079 19.7303C53.8332 18.9355 53.8895 18.0565 53.805 17.0841C53.2857 17.0529 52.7633 17.0186 52.2378 16.9812C52.2941 17.6919 52.2472 18.2716 52.097 18.7578C52.6038 19.082 53.1074 19.4061 53.6079 19.7303ZM53.805 17.0841C53.7205 16.1023 53.5235 15.1859 53.1669 14.3631C52.7289 14.6311 52.291 14.8992 51.853 15.1672C52.0501 15.6534 52.1909 16.2519 52.2378 16.9812C52.7633 17.0186 53.2857 17.0529 53.805 17.0841ZM53.1763 14.3724C52.829 13.5309 52.3786 12.8389 51.8155 12.3059C51.5715 12.8607 51.3244 13.4155 51.0741 13.9703C51.3744 14.2508 51.6278 14.6342 51.8437 15.1579C52.2879 14.896 52.7321 14.6342 53.1763 14.3724ZM51.8155 12.3059C51.243 11.7636 50.6143 11.4831 49.9386 11.4363C49.9762 12.1345 50.0137 12.8296 50.0512 13.5215C50.4548 13.5496 50.7832 13.7085 51.0741 13.9703C51.3244 13.4155 51.5715 12.8607 51.8155 12.3059ZM49.9386 11.4363C49.2817 11.3989 48.6811 11.6046 48.1556 12.0628C48.4621 12.6612 48.7656 13.2597 49.0659 13.8581C49.3568 13.615 49.6759 13.5028 50.0512 13.5215C50.0137 12.8296 49.9762 12.1345 49.9386 11.4363ZM48.1368 12.0722C47.6301 12.5397 47.2547 13.1849 47.0013 13.9984C47.483 14.3163 47.9616 14.6342 48.4371 14.9521C48.5873 14.4566 48.8125 14.0919 49.0846 13.8488C48.7718 13.2566 48.4559 12.6644 48.1368 12.0722ZM47.0107 13.9797C46.7479 14.7745 46.6447 15.6815 46.6822 16.6633C47.2015 16.6882 47.7239 16.7132 48.2494 16.7381C48.2119 16.0088 48.287 15.429 48.4371 14.9615C47.9616 14.6373 47.4862 14.3101 47.0107 13.9797ZM46.6822 16.6633C46.7104 17.6264 46.8793 18.5241 47.2078 19.3376C47.677 19.082 48.1431 18.8202 48.606 18.5521C48.409 18.0378 48.2776 17.4487 48.2494 16.7381C47.7239 16.7132 47.2015 16.6882 46.6822 16.6633ZM47.2078 19.3376C47.5362 20.1604 47.9867 20.8337 48.5685 21.3479C48.85 20.8056 49.1253 20.2601 49.3943 19.7116C49.0846 19.4404 48.8125 19.0664 48.606 18.5521C48.1431 18.8202 47.677 19.082 47.2078 19.3376ZM48.5873 21.3573C49.1973 21.8622 49.8729 22.1427 50.5768 22.1895C50.533 21.5162 50.4892 20.8399 50.4454 20.1604C50.0512 20.1324 49.704 19.9828 49.3756 19.7022C49.119 20.257 48.8563 20.8087 48.5873 21.3573ZM63.4898 26.2476C63.2583 26.3536 63.0268 26.4596 62.7953 26.5656C62.8954 26.7837 62.9986 27.005 63.105 27.2295C63.2864 27.2482 63.471 27.2669 63.6587 27.2856C63.6024 26.9427 63.5461 26.5967 63.4898 26.2476ZM56.2074 8.6966C56.1761 8.34751 56.1449 7.99842 56.1136 7.64934C55.7507 7.6244 55.3879 7.59635 55.025 7.56518C55.2002 8.05764 55.3753 8.55011 55.5505 9.04257C55.7757 8.93037 55.9947 8.81504 56.2074 8.6966ZM60.3554 9.03322C60.5743 8.93348 60.7933 8.83374 61.0123 8.734C60.9247 8.49712 60.8402 8.26336 60.7589 8.03271C60.59 8.02024 60.4179 8.00466 60.2427 7.98596C60.2803 8.33505 60.3178 8.68413 60.3554 9.03322ZM64.6065 20.0389C64.3813 20.1386 64.156 20.2383 63.9308 20.3381C64.3125 21.2544 64.7003 22.1708 65.0945 23.0871C65.1883 22.2082 65.2853 21.3261 65.3854 20.4409C65.1289 20.31 64.8693 20.176 64.6065 20.0389ZM65.8452 9.46335C65.8015 9.12049 65.7577 8.77452 65.7139 8.42543C65.5449 8.41297 65.376 8.4005 65.2071 8.38803C65.1758 8.61245 65.1477 8.83686 65.1226 9.06127C65.3666 9.19218 65.6075 9.32621 65.8452 9.46335ZM69.6929 9.72516C69.9369 9.86854 70.1777 10.0119 70.4155 10.1553C70.478 9.694 70.5406 9.2327 70.6032 8.77141C70.2528 8.74647 69.9024 8.72465 69.5521 8.70595C69.5959 9.04881 69.6428 9.38854 69.6929 9.72516ZM67.5814 26.6123C67.6439 26.9614 67.7096 27.3136 67.7784 27.6689C67.9599 27.6814 68.1413 27.697 68.3227 27.7157C68.3478 27.4975 68.3728 27.2824 68.3978 27.0705C68.1288 26.9146 67.8566 26.7619 67.5814 26.6123ZM64.1842 25.9297C61.5878 20.0763 59.1479 14.2228 56.8643 8.36933C56.4264 8.58751 55.9885 8.81192 55.5505 9.04257C57.8215 14.8898 60.2365 20.7308 62.7953 26.5656C63.2583 26.3536 63.7212 26.1417 64.1842 25.9297ZM56.3013 9.74387C57.6964 9.85607 59.0885 9.96516 60.4773 10.0711C60.396 9.37919 60.3178 8.68413 60.2427 7.98596C58.8726 7.87375 57.4962 7.76154 56.1136 7.64934C56.1761 8.34751 56.2387 9.04569 56.3013 9.74387ZM59.7078 9.33244C61.0592 13.0041 62.4668 16.6726 63.9308 20.3381C64.3813 20.1386 64.8286 19.9391 65.2728 19.7396C63.7963 16.0742 62.3761 12.4057 61.0123 8.734C60.5743 8.93348 60.1395 9.13296 59.7078 9.33244ZM65.3854 20.4409C65.7733 16.9126 66.1706 13.3906 66.5772 9.87477C66.0892 9.60049 65.6044 9.32932 65.1226 9.06127C64.6784 12.5771 64.2468 16.0991 63.8276 19.6274C64.3469 19.9017 64.8661 20.1729 65.3854 20.4409ZM65.986 10.5013C67.2811 10.5885 68.5699 10.6727 69.8524 10.7537C69.746 10.068 69.6459 9.38543 69.5521 8.70595C68.2758 8.61868 66.9964 8.52517 65.7139 8.42543C65.8015 9.11738 65.8922 9.80932 65.986 10.5013ZM68.9796 9.29504C68.2226 14.8929 67.4844 20.5126 66.7649 26.1541C67.3092 26.4596 67.8535 26.765 68.3978 27.0705C69.0485 21.404 69.721 15.7656 70.4155 10.1553C69.9337 9.86854 69.4551 9.58179 68.9796 9.29504ZM67.3843 25.565C66.0392 25.4528 64.6878 25.3375 63.3302 25.2191C63.4366 25.9048 63.5461 26.5936 63.6587 27.2856C65.0413 27.4165 66.4146 27.5443 67.7784 27.6689C67.647 26.9645 67.5157 26.2632 67.3843 25.565ZM75.7834 34.4387C75.5143 34.4138 75.2422 34.3889 74.9669 34.3639C75.042 34.6569 75.1171 34.9437 75.1921 35.2242C75.4236 35.3115 75.652 35.3987 75.8772 35.486C75.8459 35.1307 75.8146 34.7816 75.7834 34.4387ZM74.5915 29.67C74.529 29.3084 74.4695 28.9468 74.4132 28.5853C74.1129 28.5292 73.8158 28.47 73.5217 28.4076C73.6156 28.8128 73.7094 29.2149 73.8032 29.6138C74.066 29.6325 74.3288 29.6512 74.5915 29.67ZM75.1265 29.7635C75.0702 29.4019 75.0201 29.0466 74.9763 28.6975C74.97 28.6975 74.9638 28.6975 74.9575 28.6975C74.945 28.685 74.9325 28.6788 74.92 28.6788C74.9888 29.0403 75.0576 29.4019 75.1265 29.7635ZM76.9564 29.4362C76.7374 29.1245 76.5216 28.8128 76.3089 28.5011C76.3026 28.5011 76.2995 28.5074 76.2995 28.5198C76.2933 28.5261 76.287 28.5323 76.2807 28.5385C76.506 28.8315 76.7312 29.1307 76.9564 29.4362ZM77.3787 28.1178C77.6415 28.2861 77.9043 28.4481 78.167 28.604C78.167 28.604 78.167 28.6009 78.167 28.5946C77.9043 28.4388 77.6415 28.2798 77.3787 28.1178ZM77.4163 27.538C77.679 27.6939 77.9387 27.8497 78.1952 28.0055C78.2014 27.8622 78.2108 27.725 78.2233 27.5941C78.1482 27.4507 78.0763 27.3074 78.0075 27.164C77.8135 27.2887 77.6165 27.4133 77.4163 27.538ZM69.5521 9.71581C69.502 9.37919 69.452 9.03946 69.4019 8.6966C69.0579 8.67167 68.7169 8.64673 68.379 8.6218C68.5605 9.08933 68.7419 9.55685 68.9233 10.0244C69.1298 9.92464 69.3394 9.82179 69.5521 9.71581ZM73.5874 9.94023C73.8001 9.85296 74.0097 9.76257 74.2162 9.66906C74.1286 9.43218 74.041 9.19218 73.9534 8.94907C73.7782 8.94283 73.6062 8.9366 73.4373 8.93037C73.4873 9.26699 73.5374 9.60361 73.5874 9.94023ZM77.923 20.8804C77.7228 20.9926 77.5257 21.1017 77.3318 21.2077C77.7635 22.2175 78.2077 23.2336 78.6644 24.256C78.6519 23.2336 78.6425 22.2175 78.6362 21.2077C78.3985 21.1017 78.1608 20.9926 77.923 20.8804ZM78.4485 10.0524C78.3985 9.72828 78.3484 9.40101 78.2984 9.07062C78.1357 9.07062 77.9762 9.07062 77.8198 9.07062C77.801 9.28881 77.7822 9.50698 77.7635 9.72516C77.995 9.83737 78.2233 9.94646 78.4485 10.0524ZM82.1648 9.96828C82.3838 10.0743 82.5996 10.1802 82.8123 10.2862C82.8749 9.85607 82.9374 9.42283 83 8.98647C82.6809 8.99894 82.3587 9.0114 82.0334 9.02387C82.0772 9.34179 82.121 9.65659 82.1648 9.96828ZM81.1325 32.6247C80.8697 32.3692 80.6132 32.1198 80.363 31.8767C80.3567 31.8767 80.3536 31.8798 80.3536 31.886C80.3536 31.8985 80.3536 31.9047 80.3536 31.9047C80.6164 32.1479 80.876 32.3879 81.1325 32.6247ZM79.9688 34.4387C79.7749 34.0772 79.5872 33.7188 79.4058 33.3634C79.3995 33.3634 79.3932 33.3634 79.387 33.3634C79.3932 33.3697 79.3932 33.3728 79.387 33.3728C79.5809 33.7281 79.7749 34.0834 79.9688 34.4387ZM77.2849 33.7375C76.8063 33.7094 76.2713 33.5878 75.6801 33.3728C75.7489 34.0834 75.8146 34.7878 75.8772 35.486C76.5998 35.7572 77.2661 35.9255 77.8949 35.9722C77.6884 35.2304 77.4851 34.4855 77.2849 33.7375ZM76.5904 34.5042C76.1712 32.8959 75.7615 31.3001 75.3611 29.7167C74.8481 29.6855 74.3288 29.6513 73.8032 29.6138C74.1849 31.191 74.5728 32.7743 74.9669 34.3639C75.5112 34.4138 76.0524 34.4606 76.5904 34.5042ZM74.7699 30.7453C74.9294 30.7733 75.1171 30.8107 75.3329 30.8575C75.1953 30.1281 75.0576 29.4019 74.92 28.6788C74.7229 28.6507 74.554 28.6133 74.4132 28.5853C74.5321 29.3084 74.651 30.0284 74.7699 30.7453ZM75.2766 30.8388C75.5488 30.9136 75.8209 30.951 76.0837 30.9603C75.896 30.231 75.7146 29.5016 75.5394 28.7723C75.3423 28.7629 75.1546 28.7442 74.9763 28.6975C75.0764 29.4081 75.1765 30.1219 75.2766 30.8388ZM76.0837 30.9603C76.7312 30.9977 77.2943 30.8388 77.6321 30.3432C77.1816 29.7385 76.7312 29.137 76.2807 28.5385C76.1869 28.6694 75.9804 28.791 75.5394 28.7723C75.7146 29.5016 75.896 30.231 76.0837 30.9603ZM77.6039 30.3712C77.9512 29.9505 78.1201 29.3427 78.167 28.604C77.6415 28.2798 77.116 27.9588 76.5904 27.6409C76.5529 28.0617 76.4497 28.3235 76.3089 28.5011C76.7406 29.1245 77.1723 29.7479 77.6039 30.3712ZM78.167 28.5946C78.1733 28.3952 78.1827 28.1988 78.1952 28.0055C77.6759 27.6939 77.1535 27.3759 76.628 27.0518C76.6154 27.245 76.6029 27.4414 76.5904 27.6409C77.116 27.9588 77.6415 28.2767 78.167 28.5946ZM78.0075 27.164C75.2109 21.1796 72.5958 15.2638 70.1621 9.4166C69.7554 9.61607 69.3425 9.81867 68.9233 10.0244C71.3696 15.909 74.0003 21.8622 76.8157 27.884C77.2161 27.6533 77.6133 27.4133 78.0075 27.164ZM69.7023 10.7444C71.0599 10.8254 72.4081 10.894 73.7469 10.9501C73.6406 10.2768 73.5374 9.60361 73.4373 8.93037C72.0984 8.85556 70.7533 8.77764 69.4019 8.6966C69.502 9.37608 69.6022 10.0587 69.7023 10.7444ZM72.968 10.2114C74.3632 13.8581 75.8178 17.5235 77.3318 21.2077C77.7259 20.9895 78.117 20.7682 78.5049 20.5438C77.0159 16.9095 75.5863 13.2846 74.2162 9.66906C73.797 9.84984 73.381 10.0306 72.968 10.2114ZM78.6362 21.2077C78.7301 17.5235 78.8959 13.9142 79.1336 10.3797C78.6769 10.1615 78.2202 9.94335 77.7635 9.72516C77.5132 13.2722 77.3224 16.8784 77.191 20.5438C77.679 20.7682 78.1608 20.9895 78.6362 21.2077ZM78.6081 11.0342C79.8468 11.0093 81.0793 10.9657 82.3055 10.9033C82.2117 10.28 82.121 9.65348 82.0334 9.02387C80.8009 9.05504 79.5559 9.07062 78.2984 9.07062C78.3985 9.72517 78.5017 10.3797 78.6081 11.0342ZM81.5079 9.64101C80.9448 15.7376 80.6476 22.1209 80.6163 28.791C81.1169 29.0528 81.6236 29.3146 82.1366 29.5764C82.0428 22.8066 82.268 16.3765 82.8123 10.2862C82.3806 10.0743 81.9458 9.85919 81.5079 9.64101ZM80.607 28.7816C80.6445 30.1375 80.5507 31.1567 80.363 31.8767C80.876 32.3754 81.3921 32.871 81.9114 33.3634C82.146 32.3816 82.2023 31.1006 82.1366 29.5764C81.6236 29.3146 81.1137 29.0497 80.607 28.7816ZM80.3536 31.9047C80.1753 32.606 79.8656 33.0829 79.4058 33.3634C79.7811 34.0803 80.1596 34.8003 80.5413 35.5234C81.2451 35.1213 81.6956 34.3826 81.9208 33.3447C81.3953 32.8647 80.8729 32.3847 80.3536 31.9047ZM79.387 33.3728C78.9084 33.6626 78.2327 33.8029 77.2849 33.7375C77.4851 34.4855 77.6884 35.2304 77.8949 35.9722C78.9928 36.0657 79.8937 35.9255 80.56 35.5141C80.1659 34.7972 79.7749 34.0834 79.387 33.3728Z" fill="#E7FFDE"/>
</svg>
